<?xml version="1.0" encoding="UTF-8" standalone="no"?>
<svg
   xmlns:dc="http://purl.org/dc/elements/1.1/"
   xmlns:cc="http://creativecommons.org/ns#"
   xmlns:rdf="http://www.w3.org/1999/02/22-rdf-syntax-ns#"
   xmlns:svg="http://www.w3.org/2000/svg"
   xmlns="http://www.w3.org/2000/svg"
   xmlns:sodipodi="http://sodipodi.sourceforge.net/DTD/sodipodi-0.dtd"
   xmlns:inkscape="http://www.inkscape.org/namespaces/inkscape"
   viewBox="0 0 512 512"
   style="height: 512px; width: 512px;"
   version="1.1"
   id="svg8"
   sodipodi:docname="brick-pile.svg"
   inkscape:version="0.92.4 (5da689c313, 2019-01-14)"
   inkscape:export-filename="C:\Coding\Conquer-Space\assets\img\icons\goods.png"
   inkscape:export-xdpi="3"
   inkscape:export-ydpi="3">
  <metadata
     id="metadata14">
    <rdf:RDF>
      <cc:Work
         rdf:about="">
        <dc:format>image/svg+xml</dc:format>
        <dc:type
           rdf:resource="http://purl.org/dc/dcmitype/StillImage" />
        <dc:title></dc:title>
      </cc:Work>
    </rdf:RDF>
  </metadata>
  <defs
     id="defs12" />
  <sodipodi:namedview
     pagecolor="#ffffff"
     bordercolor="#666666"
     borderopacity="1"
     objecttolerance="10"
     gridtolerance="10"
     guidetolerance="10"
     inkscape:pageopacity="0"
     inkscape:pageshadow="2"
     inkscape:window-width="1920"
     inkscape:window-height="1057"
     id="namedview10"
     showgrid="false"
     inkscape:zoom="0.4609375"
     inkscape:cx="256"
     inkscape:cy="256"
     inkscape:window-x="-8"
     inkscape:window-y="-8"
     inkscape:window-maximized="1"
     inkscape:current-layer="svg8" />
  <path
     d="M0 0h512v512H0z"
     id="path2"
     fill-opacity="0.01"
     fill="#000000"
     style="fill:#501616" />
  <g
     class=""
     transform="translate(6.220339,-9)"
     style="fill:#666666"
     id="g6">
    <path
       d="m 233.986,85.262 -63.37,21.11 L 334.32,160.9 397.693,139.79 233.986,85.26 Z m -82.85,33.593 v 58.088 l 174.184,58.02 V 176.877 L 151.137,118.855 Z m -18,50.215 -53.71,17.89 162.63,54.175 22.417,-7.467 -125.18,-41.7 a 9,9 0 0 1 -6.156,-8.536 V 169.07 Z m -73.19,30.375 v 58.088 l 122.286,40.733 v -30.71 a 9,9 0 0 1 0.018,-0.357 9,9 0 0 1 0.01,-0.192 9,9 0 0 1 0.07,-0.697 9,9 0 0 1 0.03,-0.205 9,9 0 0 1 0.134,-0.66 9,9 0 0 1 0.06,-0.236 9,9 0 0 1 0.19,-0.616 9,9 0 0 1 0.092,-0.248 9,9 0 0 1 0.238,-0.567 9,9 0 0 1 0.135,-0.282 9,9 0 0 1 0.265,-0.488 9,9 0 0 1 0.197,-0.32 9,9 0 0 1 0.28,-0.41 9,9 0 0 1 0.26,-0.342 9,9 0 0 1 0.288,-0.344 9,9 0 0 1 0.318,-0.342 9,9 0 0 1 0.3,-0.29 9,9 0 0 1 0.374,-0.33 9,9 0 0 1 0.3,-0.237 9,9 0 0 1 0.438,-0.315 9,9 0 0 1 0.286,-0.182 9,9 0 0 1 0.502,-0.29 9,9 0 0 1 0.26,-0.133 9,9 0 0 1 0.59,-0.262 9,9 0 0 1 0.21,-0.082 9,9 0 0 1 0.317,-0.122 l 25.18,-8.387 z m 364.847,27.352 -87.63,29.19 a 9,9 0 0 1 -0.247,0.07 9,9 0 0 1 -0.355,0.1 9,9 0 0 1 -0.443,0.1 9,9 0 0 1 -0.47,0.085 9,9 0 0 1 -0.4,0.05 9,9 0 0 1 -0.49,0.038 9,9 0 0 1 -0.423,0.007 9,9 0 0 1 -0.48,-0.01 9,9 0 0 1 -0.397,-0.03 9,9 0 0 1 -0.504,-0.06 9,9 0 0 1 -0.38,-0.07 9,9 0 0 1 -0.52,-0.117 9,9 0 0 1 -0.31,-0.087 9,9 0 0 1 -0.268,-0.077 l -38.526,-12.834 -73.23,24.395 63.368,21.11 163.707,-54.532 z m -224.56,53.242 v 58.085 l 73.85,24.602 v -36.225 l 0.005,0.002 V 304.63 l -2.752,-0.915 -0.014,0.004 -71.09,-23.68 z m -85.174,14.82 -56.489,18.821 63.373,21.11 56.485,-18.817 -63.37,-21.11 z M 39.095,326.17 v 58.088 l 73.85,24.6 V 350.77 Z m 390.207,9.816 -63.375,21.112 36.283,12.086 63.374,-21.112 -36.28,-12.086 z M 219.03,363.36 v 21.86 l 174.183,58.022 V 385.154 L 337.45,366.58 285.934,383.742 a 9,9 0 0 1 -0.19,0.053 9,9 0 0 1 -0.467,0.133 9,9 0 0 1 -0.332,0.074 9,9 0 0 1 -0.588,0.107 9,9 0 0 1 -0.253,0.03 9,9 0 0 1 -0.674,0.053 9,9 0 0 1 -0.196,0.004 9,9 0 0 1 -0.693,-0.013 9,9 0 0 1 -0.206,-0.016 9,9 0 0 1 -0.723,-0.09 9,9 0 0 1 -0.122,-0.02 9,9 0 0 1 -0.795,-0.18 9,9 0 0 1 -0.025,-0.007 9,9 0 0 1 -0.432,-0.122 l -61.207,-20.39 z"
       id="path4"
       style="fill:#666666;fill-opacity:1"
       inkscape:connector-curvature="0" />
  </g>
</svg>
