<?xml version="1.0" encoding="UTF-8" standalone="no"?>
<svg
   xmlns:dc="http://purl.org/dc/elements/1.1/"
   xmlns:cc="http://creativecommons.org/ns#"
   xmlns:rdf="http://www.w3.org/1999/02/22-rdf-syntax-ns#"
   xmlns:svg="http://www.w3.org/2000/svg"
   xmlns="http://www.w3.org/2000/svg"
   xmlns:sodipodi="http://sodipodi.sourceforge.net/DTD/sodipodi-0.dtd"
   xmlns:inkscape="http://www.inkscape.org/namespaces/inkscape"
   viewBox="0 0 512 512"
   style="height: 512px; width: 512px;"
   version="1.1"
   id="svg8"
   sodipodi:docname="dozen.svg"
   inkscape:export-filename="C:\Coding\Conquer-Space\assets\img\icons\people.png"
   inkscape:export-xdpi="3"
   inkscape:export-ydpi="3"
   inkscape:version="0.92.4 (5da689c313, 2019-01-14)">
  <metadata
     id="metadata14">
    <rdf:RDF>
      <cc:Work
         rdf:about="">
        <dc:format>image/svg+xml</dc:format>
        <dc:type
           rdf:resource="http://purl.org/dc/dcmitype/StillImage" />
        <dc:title></dc:title>
      </cc:Work>
    </rdf:RDF>
  </metadata>
  <defs
     id="defs12" />
  <sodipodi:namedview
     pagecolor="#ffffff"
     bordercolor="#666666"
     borderopacity="1"
     objecttolerance="10"
     gridtolerance="10"
     guidetolerance="10"
     inkscape:pageopacity="0"
     inkscape:pageshadow="2"
     inkscape:window-width="1920"
     inkscape:window-height="1057"
     id="namedview10"
     showgrid="false"
     inkscape:zoom="0.4609375"
     inkscape:cx="256"
     inkscape:cy="256"
     inkscape:window-x="-8"
     inkscape:window-y="-8"
     inkscape:window-maximized="1"
     inkscape:current-layer="svg8" />
  <path
     d="M 30.372881,10.847458 H 542.37288 V 522.84746 H 30.372881 Z"
     id="path2"
     inkscape:connector-curvature="0"
     style="fill:#000000;fill-opacity:0.01000001" />
  <g
     class=""
     transform="translate(4.0508475,-2.4915255)"
     id="g6"
     style="fill:#000000">
    <path
       d="m 64.865,21.293 c -11.48,0 -20.785,10.696 -20.785,23.887 0,8.72 4.068,16.345 10.14,20.515 H 15.308 v 18.688 h 40.228 v 23.365 l -24.56,49.422 16.736,8.318 17.17,-34.547 17.167,34.548 16.736,-8.318 -24.56,-49.422 V 84.383 h 40.228 V 65.695 H 75.51 C 81.582,61.525 85.65,53.899 85.65,45.18 85.65,31.987 76.345,21.293 64.865,21.293 Z m 126.895,0 c -11.48,0 -20.785,10.696 -20.785,23.887 0,8.72 4.068,16.345 10.14,20.515 H 142.2 v 18.688 h 40.23 v 23.365 l -24.56,49.422 16.735,8.318 17.168,-34.547 17.168,34.548 16.738,-8.318 -24.56,-49.422 V 84.383 h 40.228 V 65.695 h -38.942 c 6.073,-4.17 10.14,-11.796 10.14,-20.515 0,-13.193 -9.305,-23.887 -20.784,-23.887 z m 123.244,0 c -11.48,0 -20.785,10.696 -20.785,23.887 0,8.72 4.067,16.345 10.14,20.515 h -38.913 v 18.688 h 40.227 v 23.365 l -24.56,49.422 16.736,8.318 17.17,-34.55 17.168,34.55 16.734,-8.318 -24.56,-49.418 v -23.37 h 40.228 V 65.696 h -38.94 c 6.073,-4.17 10.14,-11.796 10.14,-20.515 0,-13.193 -9.307,-23.887 -20.786,-23.887 z m 122.164,0 c -11.48,0 -20.785,10.696 -20.785,23.887 0,8.72 4.068,16.345 10.14,20.515 H 387.61 v 18.688 h 40.228 v 23.365 l -24.56,49.422 16.736,8.318 17.168,-34.547 17.168,34.548 16.736,-8.318 -24.56,-49.418 v -23.37 h 40.228 V 65.696 h -38.94 c 6.073,-4.17 10.14,-11.796 10.14,-20.515 0,-13.193 -9.307,-23.887 -20.786,-23.887 z M 64.865,187.153 c -11.48,0 -20.785,10.697 -20.785,23.888 0,8.72 4.067,16.344 10.14,20.515 H 15.306 v 18.69 h 40.228 v 23.364 l -24.56,49.42 16.736,8.318 17.17,-34.548 17.167,34.548 16.736,-8.317 -24.56,-49.42 v -23.366 h 40.228 v -18.69 H 75.513 c 6.07,-4.17 10.138,-11.794 10.138,-20.513 0,-13.192 -9.305,-23.886 -20.785,-23.886 z m 126.895,0 c -11.48,0 -20.785,10.697 -20.785,23.888 0,8.72 4.067,16.344 10.138,20.515 H 142.2 v 18.69 h 40.23 v 23.364 l -24.56,49.42 16.735,8.318 17.168,-34.547 17.168,34.548 16.738,-8.317 -24.56,-49.42 v -23.366 h 40.228 v -18.69 h -38.94 c 6.072,-4.17 10.14,-11.794 10.14,-20.513 0,-13.192 -9.307,-23.886 -20.786,-23.886 z m 123.244,0 c -11.48,0 -20.785,10.697 -20.785,23.888 0,8.72 4.066,16.344 10.137,20.515 h -38.91 v 18.69 h 40.227 v 23.364 l -24.56,49.42 16.736,8.318 17.17,-34.547 17.168,34.548 16.734,-8.317 -24.56,-49.417 v -23.37 h 40.228 v -18.688 h -38.938 c 6.072,-4.17 10.14,-11.795 10.14,-20.514 0,-13.192 -9.31,-23.886 -20.788,-23.886 z m 122.164,0 c -11.48,0 -20.785,10.697 -20.785,23.888 0,8.72 4.067,16.344 10.138,20.515 h -38.91 v 18.69 h 40.228 v 23.364 l -24.56,49.42 16.736,8.318 17.168,-34.547 17.168,34.548 16.736,-8.317 -24.56,-49.417 v -23.37 h 40.228 v -18.688 h -38.938 c 6.072,-4.17 10.14,-11.795 10.14,-20.514 0,-13.192 -9.31,-23.886 -20.788,-23.886 z M 64.865,352.43 c -11.48,0 -20.785,10.695 -20.785,23.886 0,8.72 4.067,16.345 10.14,20.516 H 15.306 v 18.69 h 40.228 v 23.365 l -24.56,49.422 16.736,8.315 17.17,-34.547 17.167,34.547 16.736,-8.316 -24.56,-49.423 V 415.52 h 40.228 V 396.832 H 75.513 c 6.07,-4.17 10.138,-11.797 10.138,-20.516 0,-13.192 -9.305,-23.886 -20.785,-23.886 z m 126.895,0 c -11.48,0 -20.785,10.695 -20.785,23.886 0,8.72 4.067,16.345 10.138,20.516 H 142.2 v 18.69 h 40.23 v 23.365 l -24.56,49.422 16.735,8.315 17.168,-34.547 17.168,34.547 16.738,-8.316 -24.56,-49.423 V 415.52 h 40.228 v -18.688 h -38.94 c 6.072,-4.17 10.14,-11.797 10.14,-20.516 0,-13.192 -9.307,-23.886 -20.786,-23.886 z m 123.244,0 c -11.48,0 -20.785,10.695 -20.785,23.886 0,8.72 4.066,16.345 10.137,20.516 h -38.91 v 18.69 h 40.227 v 23.365 l -24.56,49.422 16.736,8.315 17.17,-34.547 17.168,34.547 16.734,-8.316 -24.56,-49.42 v -23.37 h 40.228 V 396.83 h -38.938 c 6.072,-4.17 10.14,-11.797 10.14,-20.516 0,-13.192 -9.31,-23.886 -20.788,-23.886 z m 122.164,0 c -11.48,0 -20.785,10.695 -20.785,23.886 0,8.72 4.067,16.345 10.138,20.516 h -38.91 v 18.69 h 40.228 v 23.365 l -24.56,49.422 16.736,8.315 17.168,-34.547 17.168,34.547 16.736,-8.316 -24.56,-49.42 v -23.37 h 40.228 V 396.83 h -38.938 c 6.072,-4.17 10.14,-11.797 10.14,-20.516 0,-13.192 -9.31,-23.886 -20.788,-23.886 z"
       id="path4"
       inkscape:connector-curvature="0"
       style="fill:#000000;fill-opacity:1" />
  </g>
</svg>
