<?xml version="1.0" encoding="UTF-8" standalone="no"?>
<svg
   xmlns:dc="http://purl.org/dc/elements/1.1/"
   xmlns:cc="http://creativecommons.org/ns#"
   xmlns:rdf="http://www.w3.org/1999/02/22-rdf-syntax-ns#"
   xmlns:svg="http://www.w3.org/2000/svg"
   xmlns="http://www.w3.org/2000/svg"
   xmlns:sodipodi="http://sodipodi.sourceforge.net/DTD/sodipodi-0.dtd"
   xmlns:inkscape="http://www.inkscape.org/namespaces/inkscape"
   viewBox="0 0 512 512"
   style="height: 512px; width: 512px;"
   version="1.1"
   id="svg8"
   sodipodi:docname="eclipse.svg"
   inkscape:version="0.92.4 (5da689c313, 2019-01-14)"
   inkscape:export-filename="C:\Coding\Conquer-Space\assets\img\icons\eclipse.png"
   inkscape:export-xdpi="3"
   inkscape:export-ydpi="3">
  <metadata
     id="metadata14">
    <rdf:RDF>
      <cc:Work
         rdf:about="">
        <dc:format>image/svg+xml</dc:format>
        <dc:type
           rdf:resource="http://purl.org/dc/dcmitype/StillImage" />
        <dc:title></dc:title>
      </cc:Work>
    </rdf:RDF>
  </metadata>
  <defs
     id="defs12" />
  <sodipodi:namedview
     pagecolor="#ffffff"
     bordercolor="#666666"
     borderopacity="1"
     objecttolerance="10"
     gridtolerance="10"
     guidetolerance="10"
     inkscape:pageopacity="0"
     inkscape:pageshadow="2"
     inkscape:window-width="1920"
     inkscape:window-height="1057"
     id="namedview10"
     showgrid="false"
     inkscape:zoom="0.921875"
     inkscape:cx="172.8736"
     inkscape:cy="349.04043"
     inkscape:window-x="-8"
     inkscape:window-y="-8"
     inkscape:window-maximized="1"
     inkscape:current-layer="svg8" />
  <path
     d="M0 0h512v512H0z"
     fill="#000000"
     fill-opacity="0.01"
     id="path2" />
  <g
     class=""
     transform="translate(0,0)"
     style="touch-action:none;fill:#ff6600"
     id="g6">
    <path
       d="M135.688 18.5c-6.798 74.842-23.842 85.39-107.907 59.656 84.85 52.022 73.57 64.954-6.843 96.938 87.743-10.27 103.29 4.89 70.75 87.594 17.805-27.56 32.5-44.498 46.282-54.47-11.813 28.26-18.345 59.274-18.345 91.813 0 84.184 43.71 157.96 109.656 200.376-41.624-43.834-67.686-102.7-67.686-167.875 0-134.923 109.45-244.405 244.375-244.405 30.92 0 60.76 5.762 88 16.25-38.584-26.87-85.517-42.625-136.064-42.625-55.257 0-106.14 18.802-146.562 50.375 4.627-18.783 17.39-38.073 41.03-60.906C190.18 90.942 153.53 95.634 135.69 18.5zm10.03 77.188c5.67.002 11.428 1.247 16.876 3.874 14.506 6.998 22.72 21.81 22 36.938-10.26 10.87-19.507 22.696-27.594 35.344-9.035 2.753-19.075 2.27-28.25-2.156-19.37-9.343-27.5-32.6-18.156-51.97 6.715-13.92 20.638-22.036 35.125-22.03z"
       id="path4"
       fill-opacity="1"
       fill="#fff"
       style="fill:#ff6600" />
  </g>
  <path
     style="opacity:0.98000004;fill:#917c6f;fill-opacity:1;stroke:none;stroke-width:1.4947753;stroke-linecap:round;stroke-linejoin:round;stroke-miterlimit:4;stroke-dasharray:none;stroke-opacity:1;paint-order:stroke fill markers"
     d="M 217.63771,492.65547 C 167.0643,455.32669 133.09027,401.00598 122.7078,340.8731 c -3.8991,-22.58264 -4.27395,-54.19885 -0.89905,-75.82933 3.73443,-23.93486 11.05297,-47.27144 19.8216,-63.20513 2.99713,-5.44617 8.45439,-15.5947 12.12724,-22.55227 11.40464,-21.60419 21.10528,-33.56214 43.18182,-53.23 8.68825,-7.74034 16.56682,-14.86082 17.50792,-15.82332 2.56114,-2.61937 14.98541,-11.136464 23.9939,-16.448326 31.73977,-18.715371 67.043,-30.066433 104.90726,-33.730885 13.98543,-1.353489 45.0004,-0.532056 59.03057,1.563429 25.91369,3.870353 46.74396,14.542516 69.74931,25.817444 8.6934,4.26064 22.33024,16.464778 21.84163,16.942288 -0.19968,0.19512 -6.8527,-2.7827 -12.05047,-4.32718 -83.19293,-23.517191 -163.75247,-9.601825 -231.94651,45.47763 -38.65328,31.21976 -67.28168,77.77893 -79.57398,124.86488 -5.93273,22.72547 -7.98583,38.84254 -7.98761,62.7034 -0.001,18.2442 0.79989,27.61243 3.725,43.55326 4.25093,23.16609 10.88956,42.62823 22.18502,65.03865 9.84542,19.53356 25.13319,41.98104 36.86854,54.13521 4.99137,5.16951 2.09938,3.95662 -7.55228,-3.16738 z"
     id="path831"
     inkscape:connector-curvature="0"
     sodipodi:nodetypes="sssscccssssccsscssss" />
</svg>
