<?xml version="1.0" encoding="UTF-8" standalone="no"?>
<svg
   xmlns:dc="http://purl.org/dc/elements/1.1/"
   xmlns:cc="http://creativecommons.org/ns#"
   xmlns:rdf="http://www.w3.org/1999/02/22-rdf-syntax-ns#"
   xmlns:svg="http://www.w3.org/2000/svg"
   xmlns="http://www.w3.org/2000/svg"
   xmlns:sodipodi="http://sodipodi.sourceforge.net/DTD/sodipodi-0.dtd"
   xmlns:inkscape="http://www.inkscape.org/namespaces/inkscape"
   viewBox="0 0 512 512"
   style="height: 512px; width: 512px;"
   version="1.1"
   id="svg8"
   sodipodi:docname="gears.svg"
   inkscape:export-filename="C:\Coding\Conquer-Space\assets\img\icons\engineering.png"
   inkscape:export-xdpi="3"
   inkscape:export-ydpi="3"
   inkscape:version="0.92.4 (5da689c313, 2019-01-14)">
  <metadata
     id="metadata14">
    <rdf:RDF>
      <cc:Work
         rdf:about="">
        <dc:format>image/svg+xml</dc:format>
        <dc:type
           rdf:resource="http://purl.org/dc/dcmitype/StillImage" />
        <dc:title></dc:title>
      </cc:Work>
    </rdf:RDF>
  </metadata>
  <defs
     id="defs12">
    <inkscape:perspective
       sodipodi:type="inkscape:persp3d"
       inkscape:vp_x="0 : 256 : 1"
       inkscape:vp_y="0 : 1000 : 0"
       inkscape:vp_z="512 : 256 : 1"
       inkscape:persp3d-origin="256 : 170.66667 : 1"
       id="perspective850" />
  </defs>
  <sodipodi:namedview
     pagecolor="#ffffff"
     bordercolor="#666666"
     borderopacity="1"
     objecttolerance="10"
     gridtolerance="10"
     guidetolerance="10"
     inkscape:pageopacity="0"
     inkscape:pageshadow="2"
     inkscape:window-width="1920"
     inkscape:window-height="1057"
     id="namedview10"
     showgrid="false"
     inkscape:zoom="1.3037281"
     inkscape:cx="256"
     inkscape:cy="225.31876"
     inkscape:window-x="-8"
     inkscape:window-y="-8"
     inkscape:window-maximized="1"
     inkscape:current-layer="svg8" />
  <path
     d="M 6.0803407,9.0571486 H 500.52186 V 508.20479 H 6.0803407 Z"
     id="path2"
     inkscape:connector-curvature="0"
     style="fill:#000000;fill-opacity:0.01000001;stroke-width:0.97029102" />
  <path
     inkscape:connector-curvature="0"
     style="fill:#ff6600;fill-opacity:1;stroke:#180000;stroke-width:1.84355295;stroke-miterlimit:4;stroke-dasharray:none;stroke-opacity:1"
     id="path4"
     d="M 170.34877,4.7687057 153.11253,43.700539 c -3.42308,-0.408198 -6.82725,-0.64206 -10.21252,-0.663321 -11.11294,-0.07016 -21.91382,1.92193 -32.01392,5.612715 L 86.458016,14.037127 40.19701,48.219412 65.479285,83.997281 C 57.903954,95.065386 52.556043,107.9151 50.244569,122.00004 l -44.8846283,4.98235 5.6158323,57.66852 47.771869,-5.31507 c 5.339506,10.84274 12.689994,20.5927 21.637501,28.66949 l -20.389305,46.10824 51.876842,23.48624 20.48806,-46.30916 c 12.24661,1.32027 24.24947,0.13607 35.46012,-3.18903 l 29.54904,40.95793 33.32726,-24.64705 12.24556,21.42612 c -15.44905,11.93871 -29.25591,25.9301 -41.0749,41.55641 l -51.71398,-30.13007 -27.02114,49.66402 50.56351,29.69742 c -7.42614,18.00109 -12.57337,37.17893 -15.06976,57.20293 H 99.822544 v 57.10512 h 59.068676 c 1.74411,12.81251 4.59352,25.24978 8.43688,37.26928 h 177.89106 c -25.12678,-11.43591 -42.61729,-36.98014 -42.61729,-66.66906 0,-40.35628 32.31232,-73.08223 72.20205,-73.08223 39.8866,0 72.23357,32.72595 72.23357,73.08223 0,29.68999 -17.51466,55.23421 -42.65194,66.67012 h 96.13631 V 194.05114 l -12.28023,-6.80967 -28.99114,51.05764 c -17.69539,-7.65795 -36.57173,-13.00492 -56.30962,-15.64757 v -59.02918 h -56.442 v 58.9654 c -19.23041,2.52678 -37.64551,7.63563 -54.96055,14.91408 l -28.50048,-50.25931 -37.82413,21.52605 -9.71869,-13.7873 c 7.43875,-9.80418 13.05983,-21.18587 16.28539,-33.71881 l 46.68862,-5.14818 -5.61268,-57.668515 -44.39081,4.418945 C 223.29624,89.451608 215.17666,77.402342 204.75927,67.685329 l 17.46634,-39.43145 z M 141.61925,94.327654 c 24.48062,-0.255123 45.11578,18.950346 46.62454,43.948196 1.55499,25.80467 -17.86559,47.98871 -43.37167,49.56304 -25.50817,1.57644 -47.432496,-18.04361 -48.988546,-43.84934 -1.55499,-25.80361 17.833026,-47.986586 43.340146,-49.561973 0.79851,-0.0489 1.60753,-0.09142 2.39553,-0.09992 z"
     sodipodi:nodetypes="cccccccccccccccccccccccccccccssscccccccccccccccccccccccccc" />
  <path
     style="fill:none;stroke:none;stroke-width:0.97029102px;stroke-linecap:butt;stroke-linejoin:miter;stroke-opacity:1"
     d="m 225.21371,208.76858 v 0 l 5.48345,35.64392"
     id="path846"
     inkscape:connector-curvature="0" />
  <path
     style="opacity:0.98000004;fill:#ff0000;fill-opacity:1;stroke:#180000;stroke-width:2.91087317;stroke-linecap:round;stroke-linejoin:round;stroke-miterlimit:4;stroke-dasharray:none;stroke-opacity:1;paint-order:stroke fill markers"
     d="m 166.00241,502.66795 c -1.91611,-6.53243 -4.76053,-19.11301 -6.00198,-26.54608 l -0.90546,-5.42137 H 129.53283 99.970694 v -28.41553 -28.41552 h 29.513676 29.51366 l 0.84387,-6.02397 c 2.07558,-14.81654 7.7199,-35.34466 13.78663,-50.14122 0.39289,-0.95825 -4.53512,-4.14756 -24.175,-15.64563 -13.56767,-7.94311 -24.92635,-14.661 -25.2415,-14.92862 -0.49312,-0.41876 24.49957,-47.31055 25.96439,-48.71493 0.29372,-0.2816 10.03387,5.04037 21.64475,11.82662 11.61089,6.78623 23.14985,13.49123 25.64214,14.89999 l 4.53142,2.56137 5.5849,-6.9259 c 6.35939,-7.88636 23.81782,-25.39458 30.72175,-30.80939 2.54625,-1.99705 4.62954,-3.88713 4.62954,-4.2002 0,-0.31306 -2.55647,-5.05855 -5.68105,-10.54551 l -5.68107,-9.9763 -2.78044,-18.3156 c -1.52925,-10.07359 -2.72269,-18.34981 -2.65211,-18.39161 5.81611,-3.44413 36.36302,-20.49071 36.69059,-20.47505 0.26073,0.0125 6.4128,10.57852 13.67126,23.48011 7.25845,12.90159 13.62713,24.051 14.1526,24.77647 0.8988,1.24088 1.38963,1.16105 8.28388,-1.34749 15.10239,-5.49514 29.16491,-9.26957 41.21671,-11.06271 l 6.48136,-0.96434 v -29.41678 -29.41679 h 28.14761 28.14761 v 29.46702 29.46701 l 3.88881,0.51123 c 11.78968,1.54988 32.40081,7.06042 44.62369,11.93049 3.66379,1.45979 7.03896,2.65416 7.50038,2.65416 0.46142,0 6.90342,-10.73565 14.31556,-23.85699 7.41213,-13.12136 13.90305,-24.44574 14.42425,-25.16531 0.88006,-1.21503 1.35172,-1.08313 6.61507,1.84996 l 5.66742,3.15826 v 156.98077 156.98077 l -47.22131,-0.009 -47.22132,-0.009 4.79783,-2.6957 c 6.52721,-3.66734 12.23123,-8.20615 17.42023,-13.86168 33.4702,-36.47935 22.37455,-94.92613 -22.05445,-116.17266 -11.32327,-5.41494 -16.6483,-6.57328 -30.53341,-6.64182 -14.16163,-0.0699 -20.1318,1.2415 -31.85124,6.99636 -52.84094,25.9477 -54.87122,100.80491 -3.52462,129.95342 l 4.26535,2.42137 -88.22375,0.009 -88.22373,0.009 z"
     id="path848"
     inkscape:connector-curvature="0" />
</svg>
