<?xml version="1.0" encoding="UTF-8" standalone="no"?>
<svg
   xmlns:dc="http://purl.org/dc/elements/1.1/"
   xmlns:cc="http://creativecommons.org/ns#"
   xmlns:rdf="http://www.w3.org/1999/02/22-rdf-syntax-ns#"
   xmlns:svg="http://www.w3.org/2000/svg"
   xmlns="http://www.w3.org/2000/svg"
   xmlns:sodipodi="http://sodipodi.sourceforge.net/DTD/sodipodi-0.dtd"
   xmlns:inkscape="http://www.inkscape.org/namespaces/inkscape"
   viewBox="0 0 512 512"
   style="height: 512px; width: 512px;"
   version="1.1"
   id="svg8"
   sodipodi:docname="globe.svg"
   inkscape:export-filename="C:\Coding\Conquer-Space\assets\img\icons\globe.png"
   inkscape:export-xdpi="3"
   inkscape:export-ydpi="3"
   inkscape:version="0.92.4 (5da689c313, 2019-01-14)">
  <metadata
     id="metadata14">
    <rdf:RDF>
      <cc:Work
         rdf:about="">
        <dc:format>image/svg+xml</dc:format>
        <dc:type
           rdf:resource="http://purl.org/dc/dcmitype/StillImage" />
      </cc:Work>
    </rdf:RDF>
  </metadata>
  <defs
     id="defs12" />
  <sodipodi:namedview
     pagecolor="#ffffff"
     bordercolor="#666666"
     borderopacity="1"
     objecttolerance="10"
     gridtolerance="10"
     guidetolerance="10"
     inkscape:pageopacity="0"
     inkscape:pageshadow="2"
     inkscape:window-width="1920"
     inkscape:window-height="1057"
     id="namedview10"
     showgrid="false"
     inkscape:zoom="0.4609375"
     inkscape:cx="256"
     inkscape:cy="256"
     inkscape:window-x="-8"
     inkscape:window-y="-8"
     inkscape:window-maximized="1"
     inkscape:current-layer="svg8" />
  <path
     d="M0 0h512v512H0z"
     fill="#000000"
     fill-opacity="0.01"
     id="path2" />
  <g
     class=""
     transform="translate(-3.0169492,3.2033898)"
     id="g6"
     style="fill:#000000">
    <path
       d="m 322.02,20.184 -17.13,42.273 c 7.053,2.776 13.857,6.04 20.372,9.758 l 8.62,-13.274 15.675,10.18 -8.637,13.296 c 0.85,0.628 1.692,1.266 2.53,1.91 l -19.745,22.735 c 4.994,3.747 9.706,7.85 14.1,12.268 l 19.754,-22.746 c 0.187,0.184 0.38,0.366 0.567,0.55 l 11.795,-10.618 12.504,13.89 -11.79,10.614 c 4.71,5.887 9.005,12.117 12.846,18.648 l 14.114,-7.19 8.482,16.653 -14.092,7.177 c 3.015,6.877 5.555,14.007 7.578,21.353 l 15.452,-3.283 3.884,18.28 -15.445,3.282 c 1.114,7.374 1.71,14.918 1.77,22.59 l 15.777,0.827 -0.98,18.664 -15.74,-0.825 c -0.835,7.61 -2.214,15.056 -4.09,22.303 l 14.947,4.857 -5.777,17.774 -14.922,-4.85 c -2.767,7.09 -6.03,13.934 -9.75,20.486 l 13.142,8.537 -10.18,15.674 -13.13,-8.528 c -4.493,6.108 -9.418,11.877 -14.725,17.273 l 10.46,11.617 -13.89,12.506 -10.437,-11.594 c -5.9,4.734 -12.14,9.062 -18.69,12.924 l 7.05,13.838 -16.65,8.484 -7.033,-13.803 c -6.898,3.034 -14.055,5.585 -21.427,7.62 l 3.213,15.123 -18.28,3.884 -3.21,-15.107 c -7.405,1.125 -14.978,1.735 -22.682,1.797 l -0.808,15.41 -18.662,-0.98 0.807,-15.368 c -7.645,-0.834 -15.127,-2.208 -22.405,-4.092 l -4.738,14.58 -17.773,-5.777 4.73,-14.55 c -7.124,-2.78 -13.997,-6.063 -20.575,-9.803 l -8.328,12.822 -15.672,-10.18 8.33,-12.824 c -0.93,-0.685 -1.848,-1.384 -2.762,-2.088 l 19.848,-22.853 c -4.997,-3.743 -9.71,-7.842 -14.108,-12.257 l -19.848,22.853 c -0.156,-0.152 -0.314,-0.302 -0.47,-0.455 l -11.356,10.226 -12.504,-13.89 11.347,-10.216 c -4.563,-5.7 -8.737,-11.725 -12.49,-18.03 l -38.9,23.71 c 9.515,15.894 21.132,30.386 34.472,43.088 l -20.575,23.69 14.112,12.255 20.575,-23.693 c 34.76,27.522 78.7,43.96 126.482,43.96 1.365,0 2.726,-0.023 4.084,-0.05 v 19.473 c -34.134,15.356 -59.115,36.682 -79.753,59.906 h 197.54 c -19.674,-24.32 -44.835,-43.993 -80.784,-59.712 V 409.41 c 92.908,-19.004 162.8,-101.184 162.8,-199.68 0,-58.094 -24.315,-110.51 -63.323,-147.636 l 20.58,-23.698 -14.11,-12.253 -20.584,23.7 c -15.464,-12.24 -32.75,-22.278 -51.376,-29.66 z m -75.108,82.664 c -59.132,0 -106.838,47.692 -106.838,106.8 0,59.11 47.706,106.8 106.838,106.8 59.132,0 106.838,-47.69 106.838,-106.8 0,-9.375 -1.203,-18.462 -3.46,-27.12 -10.244,25.087 -23.08,45.15 -45.905,66.95 -16.887,-1.487 -29.712,-8.08 -40.643,-19.966 6.048,-8.86 13.09,-17.22 27.096,-22.102 -12.564,-28.283 -18.19,-56.568 -21.393,-84.85 12.464,4.59 20.16,11.93 29.235,24.954 7.712,1.697 16.863,-6.856 23.27,-13.975 -19.274,-18.99 -45.752,-30.692 -75.038,-30.692 z m -32.48,65.03 c 17.62,12.56 32.407,31.486 38.03,52.517 -11.065,9.256 -16.907,21.124 -19.92,34.406 16.957,8.23 30.048,21.297 41.65,36.22 v 0.007 c -34.438,-3.405 -68.245,-9.135 -98.696,-27.164 -12.172,-20.824 -19.107,-41.65 -19.92,-62.474 16.6,-7.525 33.2,-4.936 49.8,0.895 9.222,-11.47 9.186,-20.922 9.056,-34.408 z"
       id="path4"
       inkscape:connector-curvature="0"
       style="fill:#000000;fill-opacity:1" />
  </g>
</svg>
