<?xml version="1.0" encoding="UTF-8" standalone="no"?>
<svg
   xmlns:dc="http://purl.org/dc/elements/1.1/"
   xmlns:cc="http://creativecommons.org/ns#"
   xmlns:rdf="http://www.w3.org/1999/02/22-rdf-syntax-ns#"
   xmlns:svg="http://www.w3.org/2000/svg"
   xmlns="http://www.w3.org/2000/svg"
   xmlns:sodipodi="http://sodipodi.sourceforge.net/DTD/sodipodi-0.dtd"
   xmlns:inkscape="http://www.inkscape.org/namespaces/inkscape"
   viewBox="0 0 512 512"
   style="height: 512px; width: 512px;"
   version="1.1"
   id="svg8"
   sodipodi:docname="light-bulb.svg"
   inkscape:version="0.92.4 (5da689c313, 2019-01-14)"
   inkscape:export-filename="C:\Coding\Conquer-Space\assets\img\icons\scienceicon.png"
   inkscape:export-xdpi="3"
   inkscape:export-ydpi="3">
  <metadata
     id="metadata14">
    <rdf:RDF>
      <cc:Work
         rdf:about="">
        <dc:format>image/svg+xml</dc:format>
        <dc:type
           rdf:resource="http://purl.org/dc/dcmitype/StillImage" />
        <dc:title></dc:title>
      </cc:Work>
    </rdf:RDF>
  </metadata>
  <defs
     id="defs12" />
  <sodipodi:namedview
     pagecolor="#ffffff"
     bordercolor="#666666"
     borderopacity="1"
     objecttolerance="10"
     gridtolerance="10"
     guidetolerance="10"
     inkscape:pageopacity="0"
     inkscape:pageshadow="2"
     inkscape:window-width="1920"
     inkscape:window-height="1057"
     id="namedview10"
     showgrid="false"
     inkscape:zoom="0.4609375"
     inkscape:cx="256"
     inkscape:cy="256"
     inkscape:window-x="-8"
     inkscape:window-y="-8"
     inkscape:window-maximized="1"
     inkscape:current-layer="svg8" />
  <path
     d="M0 0h512v512H0z"
     fill="#000000"
     fill-opacity="0.01"
     id="path2" />
  <path
     style="fill:#ffcc00;fill-opacity:1;stroke-width:1.07568502"
     d="M 241.44262,0.6223518 C 153.06736,0.6223518 81.125,69.548478 81.125,154.99588 c 0,48.37126 17.199689,71.02582 36.3614,100.54363 12.77738,19.68561 25.94362,42.30709 33.3256,74.80159 h 180.20383 c 7.34378,-33.27259 20.64154,-56.31122 33.53026,-76.19294 19.189,-29.59732 36.36353,-51.8517 36.36353,-99.15228 0,-85.505707 -71.08742,-154.3714582 -159.46487,-154.3714582 z M 132.5311,136.21266 l 25.3417,21.6653 43.18343,36.90389 34.04191,-36.17509 7.4019,-7.88431 7.53834,7.78493 33.56437,34.68642 43.62899,-35.48147 24.76182,-20.14144 -8.35485,30.31154 -39.16056,141.88244 -19.71566,-5.13267 30.80145,-111.57297 -26.23069,21.33402 -7.39977,5.99605 -6.58538,-6.8263 -32.6434,-33.69053 -33.35971,35.44835 -6.75381,7.18657 -7.50423,-6.42671 -25.37794,-21.66323 30.49659,110.4777 -19.71778,5.10162 -39.22453,-142.11641 z"
     id="path832"
     inkscape:connector-curvature="0" />
  <g
     id="g839"
     style="fill:#b3b3b3"
     transform="rotate(-0.87741838,-331.46144,-570.12491)">
    <path
       id="path828"
       d="M 150.813,356.375 V 397.5 L 296,356.375 H 150.812 Z"
       style="fill:#b3b3b3;fill-opacity:1"
       inkscape:connector-curvature="0" />
    <path
       id="path826"
       d="m 304.406,373.438 -153.594,43.53 v 29.438 l 153.594,-43.5 v -29.47 z"
       style="fill:#b3b3b3;fill-opacity:1"
       inkscape:connector-curvature="0" />
    <path
       id="path824"
       d="M 304.406,422.313 184.97,456.156 h 119.436 v -33.844 z"
       style="fill:#b3b3b3;fill-opacity:1"
       inkscape:connector-curvature="0" />
    <path
       id="path4"
       d="m 171.844,474.843 v 20.533 h 113.282 v -20.53 h -113.28 z"
       style="fill:#b3b3b3;fill-opacity:1"
       inkscape:connector-curvature="0" />
  </g>
</svg>
