<?xml version="1.0" encoding="UTF-8" standalone="no"?>
<!-- Created with Inkscape (http://www.inkscape.org/) -->

<svg
   xmlns:dc="http://purl.org/dc/elements/1.1/"
   xmlns:cc="http://creativecommons.org/ns#"
   xmlns:rdf="http://www.w3.org/1999/02/22-rdf-syntax-ns#"
   xmlns:svg="http://www.w3.org/2000/svg"
   xmlns="http://www.w3.org/2000/svg"
   xmlns:sodipodi="http://sodipodi.sourceforge.net/DTD/sodipodi-0.dtd"
   xmlns:inkscape="http://www.inkscape.org/namespaces/inkscape"
   width="48"
   height="48"
   viewBox="0 0 12.7 12.7"
   version="1.1"
   id="svg4532"
   inkscape:version="0.92.4 (5da689c313, 2019-01-14)"
   sodipodi:docname="toboldlygo.svg"
   inkscape:export-filename="C:\Coding\Conquer-Space\assets\img\icons\spaceships.png"
   inkscape:export-xdpi="32"
   inkscape:export-ydpi="32">
  <defs
     id="defs4526" />
  <sodipodi:namedview
     id="base"
     pagecolor="#ffffff"
     bordercolor="#666666"
     borderopacity="1.0"
     inkscape:pageopacity="0.0"
     inkscape:pageshadow="2"
     inkscape:zoom="13.081475"
     inkscape:cx="29.148481"
     inkscape:cy="26.669514"
     inkscape:document-units="mm"
     inkscape:current-layer="layer1"
     showgrid="true"
     units="px"
     inkscape:snap-center="false"
     inkscape:snap-grids="false"
     inkscape:window-width="1920"
     inkscape:window-height="1057"
     inkscape:window-x="-8"
     inkscape:window-y="-8"
     inkscape:window-maximized="1">
    <inkscape:grid
       type="xygrid"
       id="grid5133" />
  </sodipodi:namedview>
  <metadata
     id="metadata4529">
    <rdf:RDF>
      <cc:Work
         rdf:about="">
        <dc:format>image/svg+xml</dc:format>
        <dc:type
           rdf:resource="http://purl.org/dc/dcmitype/StillImage" />
        <dc:title></dc:title>
      </cc:Work>
    </rdf:RDF>
  </metadata>
  <g
     inkscape:label="Layer 1"
     inkscape:groupmode="layer"
     id="layer1"
     transform="translate(0,-284.3)">
    <path
       style="fill:#000080;stroke:#000000;stroke-width:0.22625379px;stroke-linecap:butt;stroke-linejoin:miter;stroke-opacity:1;fill-opacity:1"
       d="m 6.3440452,292.2375 c 1.709232,0.10631 3.150601,2.09864 3.6695708,4.24082 -0.194786,-3.54301 -1.0991676,-9.22677 -3.6695708,-11.38457 -2.5704033,2.1478 -3.4688294,7.8442 -3.6636155,11.38721 0.5189694,-2.14218 1.9603384,-4.13451 3.6695703,-4.24082"
       id="path5135-9"
       inkscape:connector-curvature="0"
       sodipodi:nodetypes="ccccc" />
    <path
       style="color:#000000;font-style:normal;font-variant:normal;font-weight:normal;font-stretch:normal;font-size:medium;line-height:normal;font-family:sans-serif;font-variant-ligatures:normal;font-variant-position:normal;font-variant-caps:normal;font-variant-numeric:normal;font-variant-alternates:normal;font-feature-settings:normal;text-indent:0;text-align:start;text-decoration:none;text-decoration-line:none;text-decoration-style:solid;text-decoration-color:#000000;letter-spacing:normal;word-spacing:normal;text-transform:none;writing-mode:lr-tb;direction:ltr;text-orientation:mixed;dominant-baseline:auto;baseline-shift:baseline;text-anchor:start;white-space:normal;shape-padding:0;clip-rule:nonzero;display:inline;overflow:visible;visibility:visible;opacity:1;isolation:auto;mix-blend-mode:normal;color-interpolation:sRGB;color-interpolation-filters:linearRGB;solid-color:#000000;solid-opacity:1;vector-effect:none;fill:#e3e4e0;fill-opacity:1;fill-rule:nonzero;stroke:none;stroke-width:0.32631877;stroke-linecap:square;stroke-linejoin:round;stroke-miterlimit:4;stroke-dasharray:none;stroke-dashoffset:0;stroke-opacity:1;paint-order:stroke fill markers;color-rendering:auto;image-rendering:auto;shape-rendering:auto;text-rendering:auto;enable-background:accumulate"
       d="m 8.6079244,288.01218 -0.1458068,0.0738 0.1298174,0.31314 0.147617,-0.0888 c 0.2192534,-0.10962 0.759563,-0.23322 1.2283465,-0.28481 0.2343905,-0.0258 0.4532835,-0.0363 0.6099355,-0.026 0.07717,0.005 0.138656,0.0164 0.172293,0.027 0.0055,0.0297 0.0097,0.0605 -0.0127,0.11878 -0.0274,0.0713 -0.08374,0.16451 -0.171269,0.26923 -0.175046,0.20946 -0.46749,0.46403 -0.8496328,0.73118 -0.7642847,0.53431 -1.8856941,1.12961 -3.1714596,1.65019 -1.2857655,0.52058 -2.4944368,0.86869 -3.3947441,1.00834 -0.4501541,0.0698 -0.8249589,0.0854 -1.0838404,0.0516 -0.129437,-0.0169 -0.228357,-0.0472 -0.2921852,-0.0816 -0.063828,-0.0344 -0.088935,-0.0665 -0.099937,-0.0984 0.00669,0.0194 -4.293e-4,0.0224 0.00969,-0.002 0.01012,-0.0242 0.036232,-0.0659 0.075925,-0.1149 0.079382,-0.0979 0.2117616,-0.22241 0.3734908,-0.34691 0.3234583,-0.249 0.7640525,-0.50217 1.1355124,-0.62599 l 0.1534438,-0.0516 0.1067053,-0.36649 -0.3483283,0.10236 c -0.4222895,0.14076 -0.8788977,0.40612 -1.2312639,0.67737 -0.1761842,0.13562 -0.3259247,0.27069 -0.4327399,0.40246 -0.053405,0.0659 -0.096388,0.13134 -0.1261608,0.20259 -0.029773,0.0712 -0.0488,0.15769 -0.018604,0.2453 0.041926,0.12164 0.1337637,0.21352 0.2448028,0.27332 0.1110434,0.0598 0.2446015,0.0943 0.3983761,0.11436 0.3075524,0.0401 0.7038271,0.019 1.1718687,-0.0536 0.9360797,-0.14521 2.1594956,-0.4998 3.4642729,-1.02808 1.3047773,-0.52828 2.4430543,-1.12989 3.2377089,-1.68543 0.3973253,-0.27777 0.7075323,-0.54266 0.9154853,-0.79151 0.103978,-0.12442 0.183967,-0.24536 0.231633,-0.36943 0.04767,-0.12406 0.06143,-0.2587 0.01951,-0.38034 -0.03798,-0.1102 -0.123071,-0.145 -0.196393,-0.16878 -0.07332,-0.0238 -0.153816,-0.0348 -0.247212,-0.0409 -0.18679,-0.0122 -0.418535,1.9e-4 -0.6651793,0.0273 -0.4932867,0.0543 -1.0290559,0.16203 -1.3389744,0.31698 z"
       id="path5180"
       inkscape:connector-curvature="0"
       sodipodi:nodetypes="ccccccccccsccccccscccccccccccscccccsccc" />
    <path
       style="fill:none;stroke:#ffcc00;stroke-width:0.26499999;stroke-linecap:round;stroke-linejoin:miter;stroke-miterlimit:4;stroke-dasharray:none;stroke-opacity:1"
       d="m 4.4880701,290.63545 c 0.7436936,-1.6018 2.2024774,-2.3884 2.2024774,-2.3884"
       id="path5192"
       inkscape:connector-curvature="0"
       sodipodi:nodetypes="cc" />
    <path
       style="color:#000000;font-style:normal;font-variant:normal;font-weight:normal;font-stretch:normal;font-size:medium;line-height:normal;font-family:sans-serif;font-variant-ligatures:normal;font-variant-position:normal;font-variant-caps:normal;font-variant-numeric:normal;font-variant-alternates:normal;font-feature-settings:normal;text-indent:0;text-align:start;text-decoration:none;text-decoration-line:none;text-decoration-style:solid;text-decoration-color:#000000;letter-spacing:normal;word-spacing:normal;text-transform:none;writing-mode:lr-tb;direction:ltr;text-orientation:mixed;dominant-baseline:auto;baseline-shift:baseline;text-anchor:start;white-space:normal;shape-padding:0;clip-rule:nonzero;display:inline;overflow:visible;visibility:visible;opacity:1;isolation:auto;mix-blend-mode:normal;color-interpolation:sRGB;color-interpolation-filters:linearRGB;solid-color:#000000;solid-opacity:1;vector-effect:none;fill:#ffcc00;fill-opacity:1;fill-rule:nonzero;stroke:none;stroke-width:0.26499876;stroke-linecap:round;stroke-linejoin:miter;stroke-miterlimit:4;stroke-dasharray:none;stroke-dashoffset:0;stroke-opacity:1;paint-order:normal;color-rendering:auto;image-rendering:auto;shape-rendering:auto;text-rendering:auto;enable-background:accumulate"
       d="m 6.8290405,287.41765 -0.1033529,0.43563 -0.4180623,0.16174 0.2289265,0.13953 0.1539957,0.0925 0.024805,0.44545 0.3400311,-0.28991 0.4325316,0.11421 -0.1731161,-0.41289 0.2428793,-0.37672 -0.4459677,0.0372 z"
       id="path5194"
       inkscape:connector-curvature="0" />
    <path
       style="fill:#000000;fill-opacity:1;stroke:#000000;stroke-width:0.03828218;stroke-linecap:round;stroke-linejoin:miter;stroke-miterlimit:4;stroke-dasharray:none;paint-order:normal"
       d=""
       id="path5198"
       inkscape:connector-curvature="0"
       transform="matrix(0.26458333,0,0,0.26458333,0,284.3)" />
  </g>
</svg>
